<svg aria-roledescription="gitGraph" viewBox="-128.58333587646484 -35.70000076293945 1036.5833129882812 327.92364501953125" height="100%" xmlns="http://www.w3.org/2000/svg" width="1036.5833129882812" id="graph-div" style="max-width: 100%;" xmlns:xlink="http://www.w3.org/1999/xlink"><style>@import url("https://cdnjs.cloudflare.com/ajax/libs/font-awesome/6.2.1/css/all.min.css");'</style><style>#graph-div{font-family:"trebuchet ms",verdana,arial,sans-serif;font-size:16px;fill:#333;}#graph-div .error-icon{fill:hsl(220.5882352941, 100%, 98.3333333333%);}#graph-div .error-text{fill:rgb(8.5000000002, 5.7500000001, 0);stroke:rgb(8.5000000002, 5.7500000001, 0);}#graph-div .edge-thickness-normal{stroke-width:2px;}#graph-div .edge-thickness-thick{stroke-width:3.5px;}#graph-div .edge-pattern-solid{stroke-dasharray:0;}#graph-div .edge-pattern-dashed{stroke-dasharray:3;}#graph-div .edge-pattern-dotted{stroke-dasharray:2;}#graph-div .marker{fill:#0b0b0b;stroke:#0b0b0b;}#graph-div .marker.cross{stroke:#0b0b0b;}#graph-div svg{font-family:"trebuchet ms",verdana,arial,sans-serif;font-size:16px;}#graph-div .commit-id,#graph-div .commit-msg,#graph-div .branch-label{fill:lightgrey;color:lightgrey;font-family:'trebuchet ms',verdana,arial,sans-serif;font-family:var(--mermaid-font-family);}#graph-div .branch-label0{fill:#333;}#graph-div .commit0{stroke:hsl(40.5882352941, 100%, 68.3333333333%);fill:hsl(40.5882352941, 100%, 68.3333333333%);}#graph-div .commit-highlight0{stroke:rgb(0, 52.2500000001, 161.5000000002);fill:rgb(0, 52.2500000001, 161.5000000002);}#graph-div .label0{fill:hsl(40.5882352941, 100%, 68.3333333333%);}#graph-div .arrow0{stroke:hsl(40.5882352941, 100%, 68.3333333333%);}#graph-div .branch-label1{fill:#333;}#graph-div .commit1{stroke:hsl(-79.4117647059, 100%, 68.3333333333%);fill:hsl(-79.4117647059, 100%, 68.3333333333%);}#graph-div .commit-highlight1{stroke:rgb(52.2500000001, 161.5000000002, 0);fill:rgb(52.2500000001, 161.5000000002, 0);}#graph-div .label1{fill:hsl(-79.4117647059, 100%, 68.3333333333%);}#graph-div .arrow1{stroke:hsl(-79.4117647059, 100%, 68.3333333333%);}#graph-div .branch-label2{fill:#333;}#graph-div .commit2{stroke:hsl(220.5882352941, 100%, 73.3333333333%);fill:hsl(220.5882352941, 100%, 73.3333333333%);}#graph-div .commit-highlight2{stroke:rgb(136.0000000002, 92.0000000001, 0);fill:rgb(136.0000000002, 92.0000000001, 0);}#graph-div .label2{fill:hsl(220.5882352941, 100%, 73.3333333333%);}#graph-div .arrow2{stroke:hsl(220.5882352941, 100%, 73.3333333333%);}#graph-div .branch-label3{fill:#333;}#graph-div .commit3{stroke:hsl(10.5882352941, 100%, 68.3333333333%);fill:hsl(10.5882352941, 100%, 68.3333333333%);}#graph-div .commit-highlight3{stroke:rgb(0, 133.0000000002, 161.5000000002);fill:rgb(0, 133.0000000002, 161.5000000002);}#graph-div .label3{fill:hsl(10.5882352941, 100%, 68.3333333333%);}#graph-div .arrow3{stroke:hsl(10.5882352941, 100%, 68.3333333333%);}#graph-div .branch-label4{fill:#333;}#graph-div .commit4{stroke:hsl(-19.4117647059, 100%, 68.3333333333%);fill:hsl(-19.4117647059, 100%, 68.3333333333%);}#graph-div .commit-highlight4{stroke:rgb(0, 161.5000000002, 109.2500000001);fill:rgb(0, 161.5000000002, 109.2500000001);}#graph-div .label4{fill:hsl(-19.4117647059, 100%, 68.3333333333%);}#graph-div .arrow4{stroke:hsl(-19.4117647059, 100%, 68.3333333333%);}#graph-div .branch-label5{fill:#333;}#graph-div .commit5{stroke:hsl(-49.4117647059, 100%, 68.3333333333%);fill:hsl(-49.4117647059, 100%, 68.3333333333%);}#graph-div .commit-highlight5{stroke:rgb(0, 161.5000000002, 28.5);fill:rgb(0, 161.5000000002, 28.5);}#graph-div .label5{fill:hsl(-49.4117647059, 100%, 68.3333333333%);}#graph-div .arrow5{stroke:hsl(-49.4117647059, 100%, 68.3333333333%);}#graph-div .branch-label6{fill:#333;}#graph-div .commit6{stroke:hsl(100.5882352941, 100%, 68.3333333333%);fill:hsl(100.5882352941, 100%, 68.3333333333%);}#graph-div .commit-highlight6{stroke:rgb(109.2500000001, 0, 161.5000000002);fill:rgb(109.2500000001, 0, 161.5000000002);}#graph-div .label6{fill:hsl(100.5882352941, 100%, 68.3333333333%);}#graph-div .arrow6{stroke:hsl(100.5882352941, 100%, 68.3333333333%);}#graph-div .branch-label7{fill:#333;}#graph-div .commit7{stroke:hsl(160.5882352941, 100%, 68.3333333333%);fill:hsl(160.5882352941, 100%, 68.3333333333%);}#graph-div .commit-highlight7{stroke:rgb(161.5000000002, 0, 52.2500000001);fill:rgb(161.5000000002, 0, 52.2500000001);}#graph-div .label7{fill:hsl(160.5882352941, 100%, 68.3333333333%);}#graph-div .arrow7{stroke:hsl(160.5882352941, 100%, 68.3333333333%);}#graph-div .branch{stroke-width:1;stroke:#0b0b0b;stroke-dasharray:2;}#graph-div .commit-label{font-size:10px;fill:rgb(11.0000000001, 34.0000000002, 0);}#graph-div .commit-label-bkg{font-size:10px;fill:hsl(-79.4117647059, 100%, 93.3333333333%);opacity:0.5;}#graph-div .tag-label{font-size:10px;fill:#333;}#graph-div .tag-label-bkg{fill:#fff4dd;stroke:hsl(40.5882352941, 60%, 83.3333333333%);}#graph-div .tag-hole{fill:#333;}#graph-div .commit-merge{stroke:#fff4dd;fill:#fff4dd;}#graph-div .commit-reverse{stroke:#fff4dd;fill:#fff4dd;stroke-width:3;}#graph-div .commit-highlight-inner{stroke:#fff4dd;fill:#fff4dd;}#graph-div .arrow{stroke-width:8;stroke-linecap:round;fill:none;}#graph-div .gitTitleText{text-anchor:middle;font-size:18px;fill:#333;}:root{--mermaid-font-family:"trebuchet ms",verdana,arial,sans-serif;}</style><g></g><g class="commit-bullets"></g><g class="commit-labels"></g><g><line class="branch branch0" y2="0" x2="900" y1="0" x1="0"></line><rect transform="translate(-19, -9.5)" height="23" width="63.36666488647461" y="-1.5" x="-79.36666488647461" ry="4" rx="4" class="branchLabelBkg label0"></rect><g class="branchLabel"><g transform="translate(-89.36666488647461, -10.5)" class="label branch-label0"><text><tspan class="row" x="0" dy="1em" xml:space="preserve">career</tspan></text></g></g><line class="branch branch1" y2="90" x2="900" y1="90" x1="0"></line><rect transform="translate(-19, 80.5)" height="23" width="85.58333587646484" y="-1.5" x="-101.58333587646484" ry="4" rx="4" class="branchLabelBkg label1"></rect><g class="branchLabel"><g transform="translate(-111.58333587646484, 79.5)" class="label branch-label1"><text><tspan class="row" x="0" dy="1em" xml:space="preserve">university</tspan></text></g></g><line class="branch branch2" y2="180" x2="900" y1="180" x1="0"></line><rect transform="translate(-19, 170.5)" height="23" width="73.1500015258789" y="-1.5" x="-89.1500015258789" ry="4" rx="4" class="branchLabelBkg label2"></rect><g class="branchLabel"><g transform="translate(-99.1500015258789, 169.5)" class="label branch-label2"><text><tspan class="row" x="0" dy="1em" xml:space="preserve">passion</tspan></text></g></g></g><g class="commit-arrows"><path class="arrow arrow2" d="M 10 90 L 10 160 A 20 20, 0, 0, 0, 30 180 L 60 180"></path><path class="arrow arrow1" d="M 10 90 L 10 90  10 90 L 110 90"></path><path class="arrow arrow1" d="M 110 90 L 110 90  110 90 L 160 90"></path><path class="arrow arrow1" d="M 160 90 L 190 90 A 20 20, 0, 0, 0, 210 70 L 210 0"></path><path class="arrow arrow2" d="M 60 180 L 60 180  60 180 L 260 180"></path><path class="arrow arrow0" d="M 210 0 L 210 0  210 0 L 310 0"></path><path class="arrow arrow2" d="M 260 180 L 290 180 A 20 20, 0, 0, 0, 310 160 L 310 0"></path><path class="arrow arrow0" d="M 310 0 L 310 0  310 0 L 360 0"></path><path class="arrow arrow2" d="M 260 180 L 260 180  260 180 L 410 180"></path><path class="arrow arrow2" d="M 410 180 L 410 180  410 180 L 460 180"></path><path class="arrow arrow2" d="M 460 180 L 460 180  460 180 L 510 180"></path><path class="arrow arrow0" d="M 360 0 L 360 0  360 0 L 560 0"></path><path class="arrow arrow2" d="M 510 180 L 540 180 A 20 20, 0, 0, 0, 560 160 L 560 0"></path><path class="arrow arrow0" d="M 560 0 L 560 0  560 0 L 610 0"></path><path class="arrow arrow2" d="M 510 180 L 510 180  510 180 L 660 180"></path><path class="arrow arrow2" d="M 660 180 L 660 180  660 180 L 710 180"></path><path class="arrow arrow2" d="M 710 180 L 710 180  710 180 L 760 180"></path><path class="arrow arrow2" d="M 760 180 L 760 180  760 180 L 810 180"></path><path class="arrow arrow0" d="M 610 0 L 610 0  610 0 L 860 0"></path></g><g class="commit-bullets"><circle class="commit humanities commit1" r="10" cy="90" cx="10"></circle><circle class="commit linguistics commit2" r="10" cy="180" cx="60"></circle><circle class="commit design automation commit1" r="10" cy="90" cx="110"></circle><circle class="commit CAD commit1" r="10" cy="90" cx="160"></circle><rect class="commit structural engineer commit-highlight0 commit-highlight-outer" width="20" height="20" y="-10" x="200"></rect><rect class="commit structural engineer commit0 commit-highlight-inner" width="12" height="12" y="-6" x="204"></rect><circle class="commit creative writing commit2" r="10" cy="180" cx="260"></circle><circle class="commit 6-e07dd8b commit-cherry-pick" r="10" cy="0" cx="310"></circle><circle class="commit 6-e07dd8b commit-cherry-pick" fill="#fff" r="2.75" cy="2" cx="307"></circle><circle class="commit 6-e07dd8b commit-cherry-pick" fill="#fff" r="2.75" cy="2" cx="313"></circle><line class="commit 6-e07dd8b commit-cherry-pick" stroke="#fff" y2="-5" x2="310" y1="1" x1="313"></line><line class="commit 6-e07dd8b commit-cherry-pick" stroke="#fff" y2="-5" x2="310" y1="1" x1="307"></line><rect class="commit technical author commit-highlight0 commit-highlight-outer" width="20" height="20" y="-10" x="350"></rect><rect class="commit technical author commit0 commit-highlight-inner" width="12" height="12" y="-6" x="354"></rect><circle class="commit git, markup languages commit2" r="10" cy="180" cx="410"></circle><circle class="commit LaTeX, diagrams as code commit2" r="10" cy="180" cx="460"></circle><circle class="commit information architecture commit2" r="10" cy="180" cx="510"></circle><circle class="commit 11-a3c2fe2 commit-cherry-pick" r="10" cy="0" cx="560"></circle><circle class="commit 11-a3c2fe2 commit-cherry-pick" fill="#fff" r="2.75" cy="2" cx="557"></circle><circle class="commit 11-a3c2fe2 commit-cherry-pick" fill="#fff" r="2.75" cy="2" cx="563"></circle><line class="commit 11-a3c2fe2 commit-cherry-pick" stroke="#fff" y2="-5" x2="560" y1="1" x1="563"></line><line class="commit 11-a3c2fe2 commit-cherry-pick" stroke="#fff" y2="-5" x2="560" y1="1" x1="557"></line><rect class="commit senior technical author commit-highlight0 commit-highlight-outer" width="20" height="20" y="-10" x="600"></rect><rect class="commit senior technical author commit0 commit-highlight-inner" width="12" height="12" y="-6" x="604"></rect><circle class="commit API documentation commit2" r="10" cy="180" cx="660"></circle><circle class="commit static site generators commit2" r="10" cy="180" cx="710"></circle><circle class="commit advanced Linux commit2" r="10" cy="180" cx="760"></circle><circle class="commit DocOps, scripting commit2" r="10" cy="180" cx="810"></circle><circle class="commit ... commit0" r="10" cy="0" cx="860"></circle></g><g class="commit-labels"><g transform="translate(-29.68566734313965, 26.450333938598632) rotate(-45, 0, 90)"><rect height="17" width="52.38333511352539" y="103.5" x="-16.191667556762695" class="commit-label-bkg"></rect><text class="commit-label" y="115" x="-14.191667556762695">humanities</text></g><g transform="translate(-27.772999420166016, 24.73899948120117) rotate(-45, 50, 180)"><rect height="17" width="47.349998474121094" y="193.5" x="36.32500076293945" class="commit-label-bkg"></rect><text class="commit-label" y="205" x="38.32500076293945">linguistics</text></g><g transform="translate(-42.37766647338867, 37.80633316040039) rotate(-45, 100, 90)"><rect height="17" width="85.78333282470703" y="103.5" x="67.10833358764648" class="commit-label-bkg"></rect><text class="commit-label" y="115" x="69.10833358764648">design automation</text></g><g transform="translate(-19.318000144958496, 17.174000129699706) rotate(-45, 150, 90)"><rect height="17" width="25.100000381469727" y="103.5" x="147.44999980926514" class="commit-label-bkg"></rect><text class="commit-label" y="115" x="149.44999980926514">CAD</text></g><g transform="translate(-42.795665893554684, 38.18033264160157) rotate(-45, 200, 0)"><rect height="17" width="86.88333129882812" y="13.5" x="166.55833435058594" class="commit-label-bkg"></rect><text class="commit-label" y="25" x="168.55833435058594">structural engineer</text></g><g transform="translate(-36.65233352661133, 32.68366683959961) rotate(-45, 250, 180)"><rect height="17" width="70.71666717529297" y="193.5" x="224.64166641235352" class="commit-label-bkg"></rect><text class="commit-label" y="205" x="226.64166641235352">creative writing</text></g><polygon points="238.79166793823242,-17.2
          238.79166793823242,-21.2
          246.79166793823242,-27.7
          373.2083320617676,-27.7
          373.2083320617676,-10.7
          246.79166793823242,-10.7" class="tag-label-bkg"></polygon><circle class="tag-hole" r="1.5" cy="-19.2" cx="242.79166793823242"></circle><text x="250.79166793823242" class="tag-label" y="-16">cherry-pick:creative writing</text><g transform="translate(-38.147000579833986, 34.02100051879883) rotate(-45, 350, 0)"><rect height="17" width="74.6500015258789" y="13.5" x="322.67499923706055" class="commit-label-bkg"></rect><text class="commit-label" y="25" x="324.67499923706055">technical author</text></g><g transform="translate(-48.71733352661133, 43.47866683959961) rotate(-45, 400, 180)"><rect height="17" width="102.46666717529297" y="193.5" x="358.7666664123535" class="commit-label-bkg"></rect><text class="commit-label" y="205" x="360.7666664123535">git, markup languages</text></g><g transform="translate(-54.20833236694335, 48.39166580200195) rotate(-45, 450, 180)"><rect height="17" width="116.91666412353516" y="193.5" x="401.5416679382324" class="commit-label-bkg"></rect><text class="commit-label" y="205" x="403.5416679382324">LaTeX, diagrams as code</text></g><polygon points="398.5083351135254,162.8
          398.5083351135254,158.8
          406.5083351135254,152.3
          513.4916648864746,152.3
          513.4916648864746,169.3
          406.5083351135254,169.3" class="tag-label-bkg"></polygon><circle class="tag-hole" r="1.5" cy="160.8" cx="402.5083351135254"></circle><text x="410.5083351135254" class="tag-label" y="164">squash last 3 commits</text><g transform="translate(-51.035332946777345, 45.55266632080078) rotate(-45, 500, 180)"><rect height="17" width="108.56666564941406" y="193.5" x="455.71666717529297" class="commit-label-bkg"></rect><text class="commit-label" y="205" x="457.71666717529297">information architecture</text></g><polygon points="469.8666687011719,-17.2
          469.8666687011719,-21.2
          477.8666687011719,-27.7
          642.1333312988281,-27.7
          642.1333312988281,-10.7
          477.8666687011719,-10.7" class="tag-label-bkg"></polygon><circle class="tag-hole" r="1.5" cy="-19.2" cx="473.8666687011719"></circle><text x="481.8666687011719" class="tag-label" y="-16">cherry-pick:information architecture</text><g transform="translate(-49.559667053222654, 44.23233367919922) rotate(-45, 600, 0)"><rect height="17" width="104.68333435058594" y="13.5" x="557.658332824707" class="commit-label-bkg"></rect><text class="commit-label" y="25" x="559.658332824707">senior technical author</text></g><g transform="translate(-43.42900115966797, 38.747001037597656) rotate(-45, 650, 180)"><rect height="17" width="88.55000305175781" y="193.5" x="615.7249984741211" class="commit-label-bkg"></rect><text class="commit-label" y="205" x="617.7249984741211">API documentation</text></g><g transform="translate(-46.38666763305664, 41.393334197998044) rotate(-45, 700, 180)"><rect height="17" width="96.33333587646484" y="193.5" x="661.8333320617676" class="commit-label-bkg"></rect><text class="commit-label" y="205" x="663.8333320617676">static site generators</text></g><g transform="translate(-37.937999420166015, 33.833999481201175) rotate(-45, 750, 180)"><rect height="17" width="74.0999984741211" y="193.5" x="722.9500007629395" class="commit-label-bkg"></rect><text class="commit-label" y="205" x="724.9500007629395">advanced Linux</text></g><g transform="translate(-41.30099884033203, 36.84299896240235) rotate(-45, 800, 180)"><rect height="17" width="82.94999694824219" y="193.5" x="768.5250015258789" class="commit-label-bkg"></rect><text class="commit-label" y="205" x="770.5250015258789">DocOps, scripting</text></g><g transform="translate(-14.473000144958498, 12.839000129699707) rotate(-45, 850, 0)"><rect height="17" width="12.350000381469727" y="13.5" x="853.8249998092651" class="commit-label-bkg"></rect><text class="commit-label" y="25" x="855.8249998092651">...</text></g></g></svg>